<svg width="17" height="17" viewBox="0 0 17 17" fill="none" xmlns="http://www.w3.org/2000/svg">
<g clip-path="url(#clip0_964_6761)">
<path d="M5.03516 6.24159L7.1018 9.13451C7.18687 9.25361 7.29812 9.35162 7.427 9.42101C7.55587 9.4904 7.69893 9.52931 7.8452 9.53476C7.99146 9.54022 8.13703 9.51206 8.27071 9.45247C8.40439 9.39287 8.52263 9.30341 8.61633 9.19098L15.3872 1.06494" stroke="black" stroke-width="1.00383" stroke-linecap="round" stroke-linejoin="round"/>
<path d="M11.3309 2.99423C9.98895 2.16374 8.39315 1.84328 6.83458 2.09129C5.276 2.33931 3.8585 3.13928 2.84059 4.34531C1.82267 5.55134 1.27216 7.08307 1.28946 8.66116C1.30676 10.2392 1.89071 11.7585 2.93482 12.942C3.97892 14.1254 5.41362 14.8941 6.97726 15.1079C8.54089 15.3217 10.1293 14.9663 11.4527 14.1066C12.7762 13.2469 13.7466 11.9401 14.1868 10.4246C14.6271 8.90907 14.508 7.28578 13.8512 5.85077" stroke="black" stroke-width="1.00383" stroke-linecap="round" stroke-linejoin="round"/>
</g>
<defs>
<clipPath id="clip0_964_6761">
<rect width="16.0613" height="16.0613" fill="white" transform="translate(0.298828 0.0932617)"/>
</clipPath>
</defs>
</svg>
