<svg width="17" height="17" viewBox="0 0 17 17" fill="none" xmlns="http://www.w3.org/2000/svg">
<g clip-path="url(#clip0_964_6748)">
<path d="M10.3258 6.3728L6.33301 10.3649" stroke="#DC3545" stroke-width="1.00383" stroke-linecap="round" stroke-linejoin="round"/>
<path d="M6.33301 6.3728L10.3258 10.3649" stroke="#DC3545" stroke-width="1.00383" stroke-linecap="round" stroke-linejoin="round"/>
<path d="M1.27051 8.36924C1.27051 10.2412 2.01414 12.0365 3.33781 13.3601C4.66148 14.6838 6.45676 15.4275 8.32872 15.4275C10.2007 15.4275 11.996 14.6838 13.3196 13.3601C14.6433 12.0365 15.3869 10.2412 15.3869 8.36924C15.3869 6.49729 14.6433 4.70201 13.3196 3.37834C11.996 2.05467 10.2007 1.31104 8.32872 1.31104C6.45676 1.31104 4.66148 2.05467 3.33781 3.37834C2.01414 4.70201 1.27051 6.49729 1.27051 8.36924Z" stroke="#DC3545" stroke-width="1.00383" stroke-linecap="round" stroke-linejoin="round"/>
</g>
<defs>
<clipPath id="clip0_964_6748">
<rect width="16.0613" height="16.0613" fill="white" transform="translate(0.298828 0.338623)"/>
</clipPath>
</defs>
</svg>
