<svg width="17" height="17" viewBox="0 0 17 17" fill="none" xmlns="http://www.w3.org/2000/svg">
<g clip-path="url(#clip0_964_6718)">
<path d="M8.33648 4.64407C5.80744 4.6014 3.19183 6.36878 1.54742 8.17882C1.37482 8.37044 1.2793 8.61921 1.2793 8.87711C1.2793 9.13501 1.37482 9.38378 1.54742 9.5754C3.15607 11.3472 5.76415 13.1553 8.33648 13.112C10.9088 13.1553 13.5175 11.3472 15.1274 9.5754C15.3 9.38378 15.3955 9.13501 15.3955 8.87711C15.3955 8.61921 15.3 8.37044 15.1274 8.17882C13.4811 6.36878 10.8655 4.6014 8.33648 4.64407Z" stroke="black" stroke-width="1.00383" stroke-linecap="round" stroke-linejoin="round"/>
<path d="M10.6898 8.87851C10.6897 9.34381 10.5516 9.79863 10.293 10.1854C10.0344 10.5723 9.66695 10.8737 9.23703 11.0517C8.80711 11.2297 8.33408 11.2762 7.87773 11.1853C7.42139 11.0945 7.00223 10.8704 6.67325 10.5413C6.34428 10.2122 6.12027 9.79302 6.02954 9.33665C5.93881 8.88028 5.98544 8.40725 6.16353 7.97738C6.34162 7.54752 6.64317 7.1801 7.03007 6.92161C7.41696 6.66312 7.87181 6.52515 8.33711 6.52515C8.64615 6.52506 8.95218 6.58588 9.23771 6.70413C9.52323 6.82238 9.78266 6.99573 10.0012 7.21428C10.2197 7.43284 10.3929 7.69231 10.5111 7.97787C10.6293 8.26342 10.69 8.56947 10.6898 8.87851Z" stroke="black" stroke-width="1.00383" stroke-linecap="round" stroke-linejoin="round"/>
</g>
<defs>
<clipPath id="clip0_964_6718">
<rect width="16.0613" height="16.0613" fill="white" transform="translate(0.306641 0.8479)"/>
</clipPath>
</defs>
</svg>
