<svg width="15" height="15" viewBox="0 0 15 15" fill="none" xmlns="http://www.w3.org/2000/svg">
<g clip-path="url(#clip0_1_705)">
<path d="M1.22467 10.2603C1.22509 9.64775 1.37731 9.0448 1.66772 8.50541C1.95814 7.96602 2.37769 7.50701 2.88887 7.16941C3.40006 6.83181 3.98693 6.62615 4.59703 6.57082C5.20713 6.51549 5.82143 6.61221 6.38501 6.85233" stroke="#777777" stroke-width="1.00383" stroke-linecap="round" stroke-linejoin="round"/>
<path d="M2.66571 3.46666C2.66571 4.06724 2.90429 4.64323 3.32897 5.06791C3.75365 5.49258 4.32963 5.73117 4.93022 5.73117C5.5308 5.73117 6.10679 5.49258 6.53147 5.06791C6.95615 4.64323 7.19473 4.06724 7.19473 3.46666C7.19473 2.86607 6.95615 2.29009 6.53147 1.86541C6.10679 1.44073 5.5308 1.20215 4.93022 1.20215C4.32963 1.20215 3.75365 1.44073 3.32897 1.86541C2.90429 2.29009 2.66571 2.86607 2.66571 3.46666Z" stroke="#777777" stroke-width="1.00383" stroke-linecap="round" stroke-linejoin="round"/>
<path d="M6.98889 10.2604C6.98889 11.134 7.33592 11.9718 7.95363 12.5895C8.57135 13.2072 9.40914 13.5542 10.2827 13.5542C11.1563 13.5542 11.9941 13.2072 12.6118 12.5895C13.2295 11.9718 13.5766 11.134 13.5766 10.2604C13.5766 9.38681 13.2295 8.54901 12.6118 7.93129C11.9941 7.31358 11.1563 6.96655 10.2827 6.96655C9.40914 6.96655 8.57135 7.31358 7.95363 7.93129C7.33592 8.54901 6.98889 9.38681 6.98889 10.2604Z" stroke="#777777" stroke-width="1.00383" stroke-linecap="round" stroke-linejoin="round"/>
<path d="M11.7504 9.30225L10.1556 11.429C10.1202 11.4761 10.075 11.5151 10.0232 11.5433C9.97136 11.5715 9.91407 11.5883 9.85521 11.5924C9.79636 11.5966 9.73729 11.5881 9.682 11.5675C9.62672 11.5468 9.57651 11.5146 9.53476 11.4729L8.7113 10.6494" stroke="#777777" stroke-width="1.00383" stroke-linecap="round" stroke-linejoin="round"/>
</g>
<defs>
<clipPath id="clip0_1_705">
<rect width="14.0537" height="14.0537" fill="white" transform="translate(0.373413 0.351318)"/>
</clipPath>
</defs>
</svg>
