<svg width="17" height="17" viewBox="0 0 17 17" fill="none" xmlns="http://www.w3.org/2000/svg">
<g clip-path="url(#clip0_14_1500)">
<path d="M1.34752 12.0467C1.348 11.3466 1.52196 10.6575 1.85386 10.041C2.18577 9.42458 2.66526 8.89999 3.24946 8.51416C3.83367 8.12834 4.50439 7.8933 5.20164 7.83006C5.8989 7.76683 6.60095 7.87736 7.24504 8.15179" stroke="#131313" stroke-width="1.00768" stroke-linecap="round" stroke-linejoin="round"/>
<path d="M2.99445 4.28259C2.99445 4.96897 3.26711 5.62724 3.75246 6.11259C4.2378 6.59793 4.89607 6.8706 5.58246 6.8706C6.26884 6.8706 6.92711 6.59793 7.41245 6.11259C7.8978 5.62724 8.17046 4.96897 8.17046 4.28259C8.17046 3.59621 7.8978 2.93794 7.41245 2.45259C6.92711 1.96724 6.26884 1.69458 5.58246 1.69458C4.89607 1.69458 4.2378 1.96724 3.75246 2.45259C3.26711 2.93794 2.99445 3.59621 2.99445 4.28259Z" stroke="#131313" stroke-width="1.00768" stroke-linecap="round" stroke-linejoin="round"/>
<path d="M10.7585 11.5761C10.7585 11.8257 10.8576 12.0651 11.0341 12.2416C11.2106 12.418 11.45 12.5172 11.6996 12.5172C11.9492 12.5172 12.1885 12.418 12.365 12.2416C12.5415 12.0651 12.6407 11.8257 12.6407 11.5761C12.6407 11.3265 12.5415 11.0871 12.365 10.9107C12.1885 10.7342 11.9492 10.635 11.6996 10.635C11.45 10.635 11.2106 10.7342 11.0341 10.9107C10.8576 11.0871 10.7585 11.3265 10.7585 11.5761Z" stroke="#131313" stroke-width="1.00768" stroke-linecap="round" stroke-linejoin="round"/>
<path d="M12.4979 7.93732L12.7752 8.84893C12.821 9.00023 12.9225 9.12851 13.0593 9.20783C13.196 9.28715 13.3577 9.31158 13.5118 9.27618L14.4353 9.06224C14.6104 9.02279 14.7935 9.04043 14.9577 9.11256C15.122 9.18469 15.2589 9.30754 15.3483 9.4631C15.4378 9.61866 15.475 9.79877 15.4547 9.97705C15.4343 10.1553 15.3574 10.3224 15.2353 10.4538L14.5884 11.1508C14.4805 11.2669 14.4205 11.4196 14.4205 11.5781C14.4205 11.7366 14.4805 11.8893 14.5884 12.0054L15.2353 12.7024C15.3574 12.8338 15.4343 13.0009 15.4547 13.1792C15.475 13.3574 15.4378 13.5375 15.3483 13.6931C15.2589 13.8487 15.122 13.9715 14.9577 14.0436C14.7935 14.1158 14.6104 14.1334 14.4353 14.094L13.5118 13.88C13.3577 13.8446 13.196 13.8691 13.0593 13.9484C12.9225 14.0277 12.821 14.156 12.7752 14.3073L12.4979 15.2151C12.4464 15.387 12.3408 15.5378 12.1968 15.6449C12.0528 15.7521 11.8781 15.81 11.6986 15.81C11.5191 15.81 11.3444 15.7521 11.2004 15.6449C11.0565 15.5378 10.9509 15.387 10.8993 15.2151L10.622 14.3035C10.5763 14.1522 10.4747 14.0239 10.338 13.9446C10.2013 13.8653 10.0395 13.8409 9.88546 13.8763L8.96193 14.0902C8.78688 14.1296 8.60381 14.112 8.43951 14.0399C8.27522 13.9677 8.13833 13.8449 8.04891 13.6893C7.95949 13.5338 7.92222 13.3537 7.94257 13.1754C7.96292 12.9971 8.03982 12.83 8.162 12.6986L8.80884 12.0016C8.9168 11.8855 8.97681 11.7329 8.97681 11.5743C8.97681 11.4158 8.9168 11.2632 8.80884 11.1471L8.162 10.45C8.03982 10.3186 7.96292 10.1516 7.94257 9.97328C7.92222 9.79501 7.95949 9.6149 8.04891 9.45934C8.13833 9.30377 8.27522 9.18093 8.43951 9.1088C8.60381 9.03666 8.78688 9.01903 8.96193 9.05848L9.88546 9.27242C10.0395 9.30781 10.2013 9.28338 10.338 9.20407C10.4747 9.12475 10.5763 8.99647 10.622 8.84516L10.8993 7.93356C10.9513 7.76175 11.0572 7.61126 11.2015 7.50444C11.3457 7.39762 11.5205 7.34016 11.7 7.34058C11.8795 7.341 12.0541 7.39929 12.1978 7.50679C12.3416 7.61429 12.4468 7.76527 12.4979 7.93732Z" stroke="#131313" stroke-width="1.00768" stroke-linecap="round" stroke-linejoin="round"/>
</g>
<defs>
<clipPath id="clip0_14_1500">
<rect width="16.0613" height="16.0613" fill="white" transform="translate(0.375427 0.722168)"/>
</clipPath>
</defs>
</svg>
