<svg width="101" height="101" viewBox="0 0 101 101" fill="none" xmlns="http://www.w3.org/2000/svg">
<path d="M85.5019 67.7384C88.3407 66.9168 91.2317 66.2895 94.1557 65.8604C95.2031 65.7366 95.8026 65.9075 94.2893 66.4415C93.113 66.858 86.1959 68.6296 85.7028 68.6771C85.6402 68.6936 85.5748 68.6969 85.5108 68.687C85.4463 68.6776 85.3852 68.655 85.3301 68.6206C85.2751 68.5868 85.2271 68.5421 85.1899 68.4889C85.1527 68.4357 85.1264 68.3759 85.1127 68.3124C85.0991 68.2494 85.0986 68.184 85.1108 68.12C85.1235 68.0564 85.1485 67.9962 85.1847 67.9426C85.2209 67.8889 85.268 67.8433 85.3226 67.808C85.3772 67.7732 85.4379 67.7492 85.5019 67.7384Z" fill="#131313"/>
<path d="M92.997 83.018C90.0264 82.2769 87.1119 81.3283 84.274 80.1797C83.619 79.8945 83.9691 79.2584 84.6928 79.4419C86.3999 79.8748 90.9172 81.6534 90.9289 81.66C93.3998 82.6562 93.3028 82.7343 93.2534 82.9272C93.2186 83.0608 93.0097 82.9592 92.997 83.018Z" fill="#131313"/>
<path d="M80.4977 91.7202C79.0715 91.1951 74.7452 86.0982 74.5307 85.6031C74.3519 85.1886 74.7984 84.9326 74.9871 85.0733C75.7597 85.6497 77.8452 88.1069 78.5101 88.8979C80.6454 91.4351 80.9409 91.7202 80.4977 91.7202Z" fill="#131313"/>
<path d="M67.2699 94.9167C67.0765 94.7647 66.942 94.5501 66.8902 94.3097C66.8431 94.1177 65.2546 88.1211 65.5529 87.2204C65.6616 86.891 65.8823 86.7725 66.1279 87.0459C66.6973 87.6825 67.5645 94.3902 67.2699 94.9167Z" fill="#131313"/>
<path d="M33.1662 76.71C33.1262 74.2537 36.3584 72.3894 35.2253 72.5131C32.7239 72.7865 29.7915 75.9985 29.3675 78.4279C29.1849 79.4721 27.6688 78.2868 29.8743 75.1915C31.2036 73.3263 34.3685 70.7077 36.2022 71.8158C36.4318 71.957 36.5316 71.8944 37.2567 71.4304C38.0199 70.9415 39.2913 70.5514 40.2268 70.9382C42.012 71.6765 41.7429 73.6429 42.0812 73.3738C42.5933 72.9235 43.2319 72.6421 43.9098 72.5687C44.7723 72.564 45.0682 73.2274 45.2805 73.5413C45.4757 73.8321 45.2965 73.4566 47.0554 71.8111C47.5066 71.341 48.037 70.9542 48.6223 70.6681C48.6857 70.638 48.7569 70.6281 48.826 70.6404C48.8952 70.6526 48.9587 70.686 49.008 70.7364C49.0572 70.7862 49.0895 70.8502 49.1005 70.9199C49.1115 70.989 49.1006 71.0601 49.0693 71.1232C48.8209 71.6798 47.0982 72.8444 45.9952 74.5525C45.6155 75.1407 45.1186 75.0969 44.881 74.7788C44.3304 74.0429 44.3304 72.8402 42.7122 74.1394C41.5184 75.0979 42.2699 75.383 41.5542 76.1693C41.4816 76.2766 41.3742 76.3556 41.2502 76.3933C41.1261 76.4309 40.9928 76.4248 40.8728 76.3759C39.967 75.9651 41.0931 74.6692 41.0738 74.2942C40.9491 71.868 39.7238 70.9641 37.2525 72.5607C37.1 72.659 37.0882 72.6877 37.1583 72.8623C37.8726 74.6179 37.0939 77.803 35.0315 78.3898C33.977 78.6905 33.0778 77.6727 33.1662 76.71ZM36.4681 74.3262C36.4759 74.0307 36.4377 73.7356 36.3547 73.4524C36.3227 73.339 36.2605 73.3263 36.1688 73.3992C35.3444 74.0424 33.8217 75.9872 34.1572 77.0657C34.4659 78.0571 36.381 77.1551 36.4681 74.3262Z" fill="#131313"/>
<path d="M23.3344 34.6358C22.2738 34.6358 22.5787 33.9338 22.8243 33.883C26.6692 33.116 52.3334 30.135 54.615 30.0183C54.9755 29.9995 55.1171 30.1595 55.1162 30.3877C55.1152 30.6159 55.1289 30.7275 53.7629 30.966C52.0458 31.2686 23.3344 34.6358 23.3344 34.6358Z" fill="#131313"/>
<path d="M23.6675 39.9315C23.5202 39.636 23.4953 39.2986 23.8661 39.243C31.8282 38.0526 54.9608 35.2236 55.8535 35.4716C56.2092 35.5709 56.0887 36.0654 55.7965 36.1337C52.2618 36.9552 25.5624 39.9484 25.0603 40.0053C23.9851 40.1272 23.7706 40.1333 23.6675 39.9315Z" fill="#131313"/>
<path d="M25.1994 45.3587C24.8323 45.3587 24.606 45.2646 24.6291 44.8797C24.6498 44.532 24.9641 44.5404 25.9513 44.3809C34.4597 43.0069 55.392 40.865 55.9129 40.7897C57.6728 40.5351 57.054 41.4456 56.7811 41.4918C49.1069 42.7825 25.2158 45.4919 25.1994 45.3587Z" fill="#131313"/>
<path d="M35.4337 28.4064C34.4347 28.4064 34.7942 28.6073 34.0941 24.1894C33.6235 21.2179 32.6161 15.0377 32.5446 13.3668C32.5008 12.3504 44.3209 11.5015 45.2921 11.43C47.6072 11.2597 47.7701 11.0804 47.9399 11.6554C48.1234 12.2765 50.7209 25.6631 50.4988 26.5322C50.4668 26.6579 50.3519 26.6823 49.6245 26.784C49.0772 26.8597 35.4403 28.4855 35.4337 28.4064ZM47.3602 11.7335C46.8704 11.7806 32.8702 13.1212 32.9497 13.5799C35.07 25.7643 34.8319 28.214 35.2925 28.0399C36.3889 27.6164 47.7573 26.5638 49.1304 26.4348C50.6084 26.2937 50.3406 26.5722 49.9774 24.8665C47.1146 11.4493 47.8058 11.6234 47.3602 11.7335Z" fill="#131313"/>
<path d="M23.5936 37.2432C23.2807 37.2258 22.9349 36.7811 23.1871 36.5943C24.122 35.8998 44.9616 33.8943 44.9734 33.8919C45.4402 33.8251 46.6274 33.7108 46.6076 34.1809C46.5902 34.5836 46.5069 34.69 45.4007 34.8396C44.5687 34.9507 24.5465 37.2959 23.5936 37.2432Z" fill="#131313"/>
<path d="M24.0816 42.0619C24.2529 41.6497 38.462 40.0983 38.478 40.0964C46.7479 39.0504 47.7139 39.0871 47.4613 39.8009C47.3008 40.2536 47.0166 40.1444 46.8133 40.2098C46.275 40.3821 25.3564 42.7108 24.9456 42.7108C24.9465 42.7433 23.7725 42.8049 24.0816 42.0619Z" fill="#131313"/>
<path d="M25.1356 47.3161C25.0519 46.8103 27.2107 46.6512 35.3206 45.7238C46.3102 44.4665 49.0394 43.9503 48.4541 45.0123C48.2658 45.3507 48.0927 45.2227 47.7417 45.3417C47.4273 45.4504 26.5317 47.845 25.6113 47.8083C25.2603 47.7966 25.1911 47.6648 25.1356 47.3161Z" fill="#131313"/>
<path d="M46.6068 49.694C47.6989 49.694 47.3436 50.2727 47.003 50.3254C44.5363 50.7075 31.4876 52.592 29.1847 52.5257C28.9217 52.5177 28.8455 51.9878 29.1062 51.9055C29.9828 51.6283 46.5988 49.5392 46.6068 49.694Z" fill="#131313"/>
<path d="M48.131 55.1909C48.1277 55.5673 47.9428 55.5315 46.0733 55.8096C35.4389 57.3921 31.141 57.6542 30.2356 57.7497C29.6663 57.8099 29.6376 57.1672 30.0291 57.0834C30.8277 56.9084 31.6353 56.7771 32.4482 56.6895C48.6354 54.5688 48.1357 54.685 48.131 55.1909Z" fill="#131313"/>
<path d="M31.3664 62.684C30.8064 62.684 30.7942 62.7127 30.7546 62.5052C30.7363 62.4068 30.6657 62.3137 30.7363 62.2012C30.9607 61.8427 35.9523 61.3434 36.3447 61.2926C37.7202 61.1147 47.3461 59.7868 48.7672 59.8593C48.846 59.8635 48.9202 59.8974 48.9751 59.9544C49.03 60.0108 49.0617 60.0861 49.0637 60.1647C49.0658 60.2437 49.0382 60.3204 48.9863 60.3797C48.9344 60.4395 48.8621 60.4771 48.7837 60.4856C36.8205 62.3367 31.3678 62.7165 31.3664 62.684Z" fill="#131313"/>
<path d="M29.7585 54.4907C29.1195 54.4907 29.2409 53.895 29.4733 53.8474C30.9198 53.5519 39.1915 52.4871 39.8639 52.8475C39.9632 52.9007 39.9312 53.0165 39.9322 53.111C39.9373 53.5472 30.2008 54.4549 29.7585 54.4907Z" fill="#131313"/>
<path d="M30.6092 59.6861C30.3123 59.6861 30.2407 59.6978 30.1621 59.4334C30.0393 59.0179 30.3334 58.9868 30.9753 58.8791C32.7549 58.5803 37.77 58.0213 40.4192 57.9469C40.4962 57.9347 40.5751 57.9521 40.6398 57.9959C40.7045 58.0396 40.7503 58.106 40.7678 58.1822C40.8097 58.2984 40.7918 58.3643 40.6737 58.4118C39.7246 58.7967 31.6195 59.6009 30.6092 59.6861Z" fill="#131313"/>
<path d="M31.5108 64.6461C31.2628 64.6461 31.1094 64.6169 31.0953 64.3412C31.0704 63.8594 31.0087 63.8429 37.5667 63.155C37.578 63.155 40.757 62.8802 41.2201 62.8689C41.6577 62.858 41.8901 63.2698 41.5669 63.3898C40.4446 63.8057 31.5108 64.6264 31.5108 64.6461Z" fill="#131313"/>
<path d="M25.486 55.0496C23.8936 54.4629 24.4235 52.2645 25.852 52.3675C26.1362 52.3802 26.4096 52.4805 26.6346 52.6546C26.8595 52.8287 27.025 53.0682 27.1084 53.3401C27.1971 53.5702 27.2187 53.821 27.1707 54.0629C27.1227 54.3052 27.0071 54.5283 26.8373 54.7076C26.6674 54.8864 26.4503 55.0134 26.2111 55.0741C25.972 55.1348 25.7205 55.1263 25.486 55.0496Z" fill="#131313"/>
<path d="M26.6856 57.5879C26.8747 57.5884 27.0617 57.6269 27.2356 57.7008C27.4095 57.7752 27.5668 57.8834 27.6981 58.0194C27.8293 58.1554 27.9319 58.3163 27.9998 58.4928C28.0676 58.6692 28.0993 58.8579 28.093 59.0466C28.0854 59.3153 27.9967 59.5755 27.8387 59.7929C27.6807 60.0103 27.4606 60.1745 27.2075 60.2648C25.458 60.8417 24.5169 57.7954 26.6856 57.5879Z" fill="#131313"/>
<path d="M29.0319 64.431C29.0444 64.6446 29.0017 64.8583 28.9079 65.0507C28.8141 65.2432 28.6724 65.4083 28.4964 65.5302C28.3205 65.6526 28.1161 65.7269 27.9029 65.7471C27.6897 65.7674 27.4749 65.7325 27.2791 65.646C26.0919 65.1458 26.0943 63.4071 27.3149 63.0603C27.5211 63.009 27.7363 63.0062 27.9438 63.0514C28.1514 63.097 28.3457 63.1892 28.5117 63.3219C28.6777 63.4546 28.811 63.6236 28.9013 63.816C28.9915 64.008 29.0362 64.2188 29.0319 64.431Z" fill="#131313"/>
<path d="M37.0404 25.2175C37.0216 23.0187 37.7758 21.5308 39.747 20.5558C40.1018 20.3803 38.5565 20.2645 37.7457 18.2878C36.4597 15.1525 39.4976 12.1293 42.5194 13.5969C44.5945 14.6053 44.6454 16.6432 44.7677 17.2079C44.6237 19.1456 44.2887 19.147 43.5763 19.9286C43.9527 20.1041 45.082 19.9968 46.2692 20.9713C48.1241 22.4921 49.5038 26.0974 48.7081 25.3225C47.6258 24.268 46.8607 21.2376 44.0868 20.6782C43.7701 20.6142 43.4445 20.5986 43.1236 20.5582C43.0623 20.5469 42.999 20.5588 42.946 20.5917C42.893 20.6246 42.8541 20.676 42.8371 20.736C42.1783 22.19 42.2945 20.8871 43.8304 24.371C43.8912 24.4825 43.9218 24.608 43.9194 24.735C43.9169 24.8619 43.8813 24.9861 43.8163 25.0952C43.1227 26.288 43.8516 26.7209 41.8903 25.3065C41.6245 25.1149 41.7491 25.0533 41.8244 23.7104C41.816 23.1462 41.8538 22.5824 41.9374 22.0244C42.0094 21.5764 41.7491 21.631 41.121 21.0221C40.6269 20.544 38.1711 21.9232 37.798 23.9565C37.5566 25.2707 37.7151 25.6034 37.6163 26.832C37.5876 27.1623 37.055 27.2348 37.0404 25.2175ZM41.3751 20.0467C41.7782 20.0416 42.176 19.9543 42.5441 19.79C42.9123 19.6258 43.243 19.3881 43.5161 19.0915C45.5004 16.5505 42.9985 13.2016 40.3681 13.8213C36.6169 14.7008 37.5552 20.0674 41.3751 20.0467Z" fill="#131313"/>
<path fill-rule="evenodd" clip-rule="evenodd" d="M66.1935 5.66041C66.6005 5.69402 66.7525 5.70656 67.137 7.57615C67.8353 10.9725 68.9834 16.5881 70.331 23.2374C70.0398 23.2716 69.7461 23.3063 69.4558 23.3408C68.0286 16.2121 66.9511 10.8079 66.6448 9.13038C66.1982 6.68639 66.1615 6.26899 66.0044 6.2173C65.9691 6.20564 65.9272 6.21259 65.8735 6.21909C65.2665 6.2931 63.9923 6.3837 62.1675 6.51341C59.7809 6.6831 56.4532 6.9197 52.4469 7.27359C36.2215 8.70689 13.855 12.1282 13.9204 12.5564C14.3234 15.1889 14.6753 17.5188 15.0024 19.6849C16.9832 32.8002 18.057 39.9104 24.08 71.8355C25.2933 78.2665 25.9308 82.0083 26.3008 84.1803C26.7897 87.0507 26.8116 87.1786 27.0779 87.1476C27.5301 87.0949 28.2045 87.0182 29.0705 86.9198C37.4365 85.9684 63.6888 82.9828 80.404 80.0564C80.7075 80.0033 77.1831 62.0359 73.6145 44.1316C73.91 44.1012 74.2093 44.0702 74.5109 44.0387C77.9892 61.5211 81.2586 78.4862 81.204 80.1717C81.1852 80.7383 81.0543 80.7618 77.8419 81.333C77.2951 81.43 76.6594 81.5434 75.9197 81.6775C69.5198 82.8397 68.5387 82.9381 67.5774 83.1348C66.8471 83.2839 66.1281 83.4895 63.0531 84.2617C46.4545 88.4256 25.6836 92.3928 24.7124 92.1928C24.6816 92.1867 24.6377 92.1937 24.5862 92.2027C24.4284 92.229 24.1987 92.2681 24.0537 91.9632C23.4189 90.632 13.2442 53.4169 6.6848 24.0547C5.82147 20.1897 5.75764 20.0311 5.80889 19.9319C5.81241 19.9251 5.81648 19.9185 5.82088 19.9111C5.886 19.7719 5.99628 19.6588 6.13379 19.5902C6.54946 19.3996 6.97906 19.241 7.41885 19.1159C12.9152 17.7334 13.7919 17.7453 13.879 17.4889C13.8948 17.4422 13.8844 17.3865 13.871 17.3118C13.8244 17.0544 13.6033 15.5661 13.567 15.3073C13.5222 14.9844 13.4779 14.6863 13.4372 14.4119C13.1881 12.7333 13.0706 11.9419 13.7416 11.7923C16.0487 11.2784 35.2489 8.17282 45.8151 7.10137C50.2763 6.64823 64.4257 5.52395 66.1935 5.66041ZM6.6641 19.8791C6.50176 19.9191 5.72582 20.1139 24.4437 91.559C24.5623 92.0116 57.223 85.2075 59.1819 84.4137C59.1184 84.3822 57.99 84.5252 55.9826 84.7803C51.256 85.3802 41.6576 86.5989 29.6221 87.6078C27.0878 87.82 26.567 87.868 26.3825 87.6417C26.3194 87.5645 26.2956 87.4548 26.2441 87.3085C25.7527 85.9209 25.1975 82.4896 24.946 80.935L24.9265 80.815C24.7951 80.0023 24.5138 78.5723 24.2447 77.204C24.0389 76.1575 23.8402 75.1472 23.721 74.4762C23.5952 73.768 23.4925 73.1112 23.3763 72.3682C23.1101 70.6653 22.773 68.5083 21.924 64.2404C17.9875 44.4513 15.9603 31.0503 14.9005 24.0442C14.3192 20.2015 14.029 18.2826 13.8743 18.2886C13.2178 18.44 11.7909 18.7503 10.3709 19.0592C8.71443 19.4195 7.06745 19.7777 6.6641 19.8791Z" fill="#131313"/>
<path d="M70.3795 78.7375C59.9334 80.055 53.0126 71.5852 53.6897 63.1563C54.284 55.7621 60.4533 51.2618 67.5595 50.6176C69.9188 50.404 70.6256 50.7931 70.8129 51.8683C71.1107 53.5844 69.2874 53.7726 67.9454 53.9561C63.9509 54.5024 57.311 56.7888 57.0433 64.2404C56.9303 66.8562 57.7891 69.4211 59.4543 71.4417C61.1191 73.4617 63.4728 74.7953 66.0618 75.1844C73.0047 76.3805 79.6855 72.0421 80.0347 64.6286C80.1424 62.3422 83.0838 62.3065 83.3638 64.2051C83.8089 67.2237 81.9051 73.202 76.4354 76.5579C74.5801 77.6764 72.5219 78.4171 70.3795 78.7375Z" fill="#131313"/>
<path d="M60.2297 63.6575C59.673 63.1399 59.6899 62.9239 60.0447 62.4811C60.4508 61.9757 62.3005 59.7726 63.0054 59.0099C63.3348 58.6537 63.5498 58.4598 64.1752 58.9831C65.3638 59.9773 68.3697 62.5686 68.4666 62.6472C69.1164 63.1742 68.1716 63.0481 80.035 46.7116C80.2557 46.4076 80.4867 46.0791 81.0702 46.4763C81.4029 46.7012 82.1812 47.2687 84.4167 48.8657C85.0214 49.2977 85.2251 49.4304 84.7574 50.1061C84.4031 50.6167 72.4164 68.4961 70.632 70.6667C69.8792 71.5824 69.4472 71.5838 68.0826 70.5293C66.0277 68.9408 61.1952 64.56 60.2297 63.6575Z" fill="#131313"/>
<path fill-rule="evenodd" clip-rule="evenodd" d="M86.7962 7.34521C94.101 11.1755 93.1806 22.0639 86.0546 24.2656C82.9368 25.2265 80.6288 24.5009 77.996 22.8723C77.805 22.7537 77.6488 23.1913 78.3612 23.6977C79.5804 24.5653 80.5441 25.2429 82.5114 25.4961C82.6973 25.5196 82.55 25.8523 82.3279 26.2019C82.2634 26.3034 82.0804 26.6126 81.8404 27.0184C81.487 27.6153 81.0099 28.4213 80.6052 29.0821C80.0608 29.9743 80.5582 30.4688 81.3111 29.4863C81.5948 29.1161 81.9576 28.6013 82.334 28.0676C82.9246 27.2293 83.5485 26.3444 83.9508 25.8993C84.1475 25.6821 84.2628 25.6653 84.4807 25.6336C84.5461 25.6241 84.6214 25.6131 84.7108 25.5949C84.9484 25.5441 85.1874 25.5441 85.2571 25.7323C86.0099 27.7806 88.0987 36.1013 88.1745 36.7182C88.2497 37.3415 86.3812 41.2092 86.0132 41.9708C85.977 42.0458 85.9554 42.0907 85.9516 42.0993C85.8777 42.2661 85.7667 42.4136 85.6264 42.5305C85.4867 42.6474 85.322 42.7306 85.1446 42.7736C84.508 43.0193 68.8947 44.6789 67.1626 44.7217C66.9415 44.7134 66.749 44.7099 66.5806 44.7068C65.7933 44.6924 65.535 44.6876 65.3553 44.2512C63.6867 40.0702 62.4388 35.7334 61.6299 31.305C61.5947 31.1204 61.5589 30.9598 61.5269 30.8146C61.2596 29.6123 61.2276 29.4692 63.7178 25.5116C63.8232 25.3441 63.9145 25.195 63.9954 25.0619C64.552 24.1511 64.6504 23.9902 65.7468 23.7965C66.0493 23.7433 71.9721 23.0041 72.3015 22.982C72.8845 22.9435 73.1315 22.9209 73.1871 23.0133C73.2661 23.1457 72.9518 23.5143 72.6666 24.411C72.4986 24.9392 72.3274 25.3981 72.1824 25.7867C72.0163 26.2319 71.8846 26.5847 71.8319 26.8437C71.6361 27.8126 72.205 27.6079 72.5302 27.079C73.3278 25.7788 74.4872 21.6894 74.506 21.6215C74.8222 20.5934 74.6274 20.159 74.3145 19.4636C74.0223 18.8148 73.628 17.9383 73.4501 16.1388C72.6798 8.33335 80.4217 4.00432 86.7962 7.34521ZM78.6223 9.79355C78.6727 9.66509 78.8473 9.59921 79.0021 10.0669C80.4716 14.5061 86.4428 17.9015 88.1458 15.0312C88.2154 14.9176 88.2987 14.8126 88.3928 14.7183C88.4667 14.6425 88.542 14.6548 88.6215 14.7268C89.1461 15.2015 88.0926 17.1515 86.1709 16.9807C81.4917 17.0164 78.1151 11.0758 78.6223 9.79355ZM68.3018 39.239C67.7664 38.7816 66.702 35.3334 65.9924 32.6668C65.4019 30.4947 64.9652 28.2836 64.6852 26.05C64.5869 25.4002 64.9337 25.0073 65.04 25.5663C65.5985 28.5136 66.1241 30.5024 66.5829 32.2385L66.6173 32.3681C67.2516 34.7707 67.7654 36.239 68.0981 37.1897C68.5489 38.477 68.6675 38.8151 68.3018 39.239ZM86.9379 37.0941C86.9487 37.256 86.8174 37.4475 86.4828 37.5133C81.8832 38.4168 71.0343 39.516 70.1106 39.2595C69.1935 39.0046 71.0508 38.7892 75.0104 38.3301C77.7876 38.0082 81.5981 37.5663 86.2113 36.9068C86.2466 36.9017 86.2824 36.8962 86.3172 36.8908C86.6367 36.8411 86.9172 36.7975 86.9379 37.0941ZM83.1514 31.6428C82.7307 33.5744 80.5069 34.8529 78.5612 35.2571C74.411 36.1187 69.5563 34.092 68.8783 30.6505C68.626 29.3734 68.778 27.9622 70.153 26.3478C70.4833 25.96 70.2767 25.8504 69.9083 26.1125C69.1738 26.6467 68.6124 27.3846 68.2938 28.2349C67.9748 29.0852 67.9127 30.0103 68.115 30.8956C69.1658 35.4303 75.9271 37.472 80.3149 35.5192C85.746 33.1025 83.4328 28.0912 82.9457 28.1853C82.7792 28.2168 82.8375 28.382 82.9486 28.6987C83.1344 29.2285 83.469 30.1822 83.1514 31.6428Z" fill="#131313"/>
</svg>
