<svg width="17" height="17" viewBox="0 0 17 17" fill="none" xmlns="http://www.w3.org/2000/svg">
<g clip-path="url(#clip0_14_1464)">
<path d="M1.34752 12.9736H15.4639" stroke="#131313" stroke-width="1.00768" stroke-linecap="round" stroke-linejoin="round"/>
<path d="M8.64101 8.0329C8.64101 8.46969 8.81452 8.88859 9.12338 9.19745C9.43223 9.5063 9.85113 9.67982 10.2879 9.67982C10.7247 9.67982 11.1436 9.5063 11.4525 9.19745C11.7613 8.88859 11.9348 8.46969 11.9348 8.0329C11.9348 7.59611 11.7613 7.17721 11.4525 6.86836C11.1436 6.5595 10.7247 6.38599 10.2879 6.38599C9.85113 6.38599 9.43223 6.5595 9.12338 6.86836C8.81452 7.17721 8.64101 7.59611 8.64101 8.0329Z" stroke="#131313" stroke-width="1.00768" stroke-linecap="round" stroke-linejoin="round"/>
<path d="M7.46465 12.9734C7.46465 12.2246 7.7621 11.5065 8.29157 10.9771C8.82103 10.4476 9.53915 10.1501 10.2879 10.1501C11.0367 10.1501 11.7548 10.4476 12.2843 10.9771C12.8138 11.5065 13.1112 12.2246 13.1112 12.9734" stroke="#131313" stroke-width="1.00768" stroke-linecap="round" stroke-linejoin="round"/>
<path d="M4.64136 10.1501V12.9734" stroke="#131313" stroke-width="1.00768" stroke-linecap="round" stroke-linejoin="round"/>
<path d="M3.22972 8.26807H6.053V10.1503H3.22972V8.26807Z" stroke="#131313" stroke-width="1.00768" stroke-linecap="round" stroke-linejoin="round"/>
<path d="M1.34752 15.7968V6.44794C1.34753 6.28547 1.3896 6.12576 1.46964 5.98438C1.54968 5.84299 1.66496 5.72473 1.80426 5.64111L7.88122 1.8372C8.03633 1.73309 8.21892 1.67749 8.40573 1.67749C8.59254 1.67749 8.77512 1.73309 8.93023 1.8372L15.0072 5.63797C15.1465 5.72159 15.2618 5.83985 15.3418 5.98124C15.4219 6.12263 15.4639 6.28233 15.4639 6.4448V15.793" stroke="#131313" stroke-width="1.00768" stroke-linecap="round" stroke-linejoin="round"/>
</g>
<defs>
<clipPath id="clip0_14_1464">
<rect width="16.0613" height="16.0613" fill="white" transform="translate(0.375427 0.708008)"/>
</clipPath>
</defs>
</svg>
