<svg width="17" height="17" viewBox="0 0 17 17" fill="none" xmlns="http://www.w3.org/2000/svg">
<g clip-path="url(#clip0_14_1437)">
<path d="M7.46464 8.9317C7.46497 9.09432 7.40073 9.25043 7.28603 9.36572C7.17133 9.48101 7.01555 9.54604 6.85292 9.54654H1.95923C1.87868 9.54638 1.79896 9.53034 1.72461 9.49934C1.65026 9.46835 1.58276 9.423 1.52595 9.3659C1.46913 9.3088 1.42414 9.24106 1.39352 9.16656C1.3629 9.09205 1.34727 9.01224 1.34752 8.9317V2.16209C1.34736 2.08151 1.36306 2.00169 1.39375 1.92718C1.42443 1.85267 1.46949 1.78494 1.52635 1.72785C1.58321 1.67075 1.65076 1.62542 1.72514 1.59443C1.79953 1.56344 1.87928 1.54741 1.95986 1.54724L6.85355 1.5554C7.01607 1.55606 7.17168 1.62117 7.28625 1.73644C7.40081 1.85171 7.46497 2.00773 7.46464 2.17025V8.9317Z" stroke="#131313" stroke-width="1.00768" stroke-linecap="round" stroke-linejoin="round"/>
<path d="M15.462 5.17863C15.4608 5.33976 15.3957 5.49383 15.281 5.60701C15.1663 5.72018 15.0114 5.78318 14.8503 5.78218H9.95658C9.87677 5.78276 9.79763 5.7676 9.72368 5.73758C9.64974 5.70755 9.58243 5.66324 9.52562 5.60719C9.46881 5.55114 9.42361 5.48443 9.39259 5.4109C9.36157 5.33736 9.34536 5.25843 9.34486 5.17863V2.15897C9.34586 1.99801 9.41071 1.84402 9.52518 1.73085C9.63965 1.61768 9.79436 1.55458 9.95532 1.55541L14.849 1.54726C15.0103 1.54609 15.1655 1.609 15.2804 1.72217C15.3953 1.83534 15.4607 1.98952 15.462 2.15081V5.17863Z" stroke="#131313" stroke-width="1.00768" stroke-linecap="round" stroke-linejoin="round"/>
<path d="M7.46463 15.0582C7.46414 15.1382 7.44789 15.2173 7.41682 15.2911C7.38575 15.3648 7.34046 15.4317 7.28354 15.4879C7.22662 15.5441 7.15919 15.5886 7.08509 15.6187C7.01098 15.6489 6.93167 15.6641 6.85167 15.6636L1.95798 15.6555C1.79685 15.6562 1.64204 15.5928 1.52758 15.4794C1.41311 15.366 1.34835 15.2118 1.34752 15.0507V12.0335C1.34793 11.9536 1.36408 11.8746 1.39505 11.801C1.42603 11.7273 1.47121 11.6605 1.52802 11.6043C1.58483 11.5482 1.65216 11.5038 1.72615 11.4736C1.80014 11.4435 1.87934 11.4282 1.95923 11.4287H6.85292C7.01422 11.4279 7.16925 11.4911 7.28395 11.6045C7.39865 11.7179 7.46364 11.8722 7.46463 12.0335V15.0582Z" stroke="#131313" stroke-width="1.00768" stroke-linecap="round" stroke-linejoin="round"/>
<path d="M9.95721 15.6637C9.87657 15.6636 9.79677 15.6475 9.72234 15.6165C9.64792 15.5855 9.58034 15.5401 9.52347 15.4829C9.4666 15.4257 9.42156 15.3579 9.39091 15.2834C9.36027 15.2088 9.34462 15.1289 9.34487 15.0483V8.2799C9.34462 8.19933 9.36024 8.11949 9.39085 8.04495C9.42146 7.97041 9.46645 7.90263 9.52325 7.84548C9.58005 7.78832 9.64756 7.74292 9.72191 7.71186C9.79626 7.68079 9.876 7.66468 9.95658 7.66443H14.8503C14.9308 7.66468 15.0106 7.68079 15.0849 7.71186C15.1593 7.74292 15.2268 7.78832 15.2836 7.84548C15.3404 7.90263 15.3854 7.97041 15.416 8.04495C15.4466 8.11949 15.4622 8.19933 15.462 8.2799V15.0401C15.4623 15.2027 15.3982 15.3588 15.2836 15.4741C15.1691 15.5895 15.0135 15.6547 14.8509 15.6556L9.95721 15.6637Z" stroke="#131313" stroke-width="1.00768" stroke-linecap="round" stroke-linejoin="round"/>
</g>
<defs>
<clipPath id="clip0_14_1437">
<rect width="16.0613" height="16.0613" fill="white" transform="translate(0.375427 0.571045)"/>
</clipPath>
</defs>
</svg>
