<svg width="17" height="17" viewBox="0 0 17 17" fill="none" xmlns="http://www.w3.org/2000/svg">
<g clip-path="url(#clip0_14_1490)">
<path d="M13.1586 7.05945C13.7047 8.37093 13.7738 9.83236 13.3538 11.1895C12.9338 12.5466 12.0513 13.7136 10.8599 14.4873C9.66848 15.2611 8.2435 15.5927 6.83286 15.4245C5.42222 15.2562 4.1152 14.5988 3.13917 13.5665C2.16314 12.5343 1.57987 11.1925 1.49083 9.77465C1.40179 8.35681 1.81261 6.95261 2.65183 5.80635C3.49105 4.66009 4.70556 3.8443 6.08406 3.5009C7.46257 3.15751 8.91784 3.30823 10.1967 3.92686" stroke="#131313" stroke-width="1.00768" stroke-linecap="round" stroke-linejoin="round"/>
<path d="M3.55125 8.08903C4.87652 7.90627 6.21194 7.80674 7.54965 7.79102C8.88757 7.80672 10.2232 7.90625 11.5487 8.08903" stroke="#131313" stroke-width="1.00768" stroke-linecap="round" stroke-linejoin="round"/>
<path d="M3.38068 9.88733C5.33502 9.50086 6.57224 11.5556 6.57224 13.4886" stroke="#131313" stroke-width="1.00768" stroke-linecap="round" stroke-linejoin="round"/>
<path d="M11.7188 9.88733C9.76444 9.50086 8.52533 11.5556 8.52533 13.4886" stroke="#131313" stroke-width="1.00768" stroke-linecap="round" stroke-linejoin="round"/>
<path d="M11.9113 5.28514L12.9603 1.78929C13.0173 1.66043 13.1105 1.5509 13.2285 1.47402C13.3466 1.39713 13.4845 1.3562 13.6254 1.3562C13.7663 1.3562 13.9041 1.39713 14.0222 1.47402C14.1402 1.5509 14.2334 1.66043 14.2904 1.78929L15.3388 5.28514" stroke="#131313" stroke-width="1.00768" stroke-linecap="round" stroke-linejoin="round"/>
<path d="M12.3387 3.85669H14.9098" stroke="#131313" stroke-width="1.00768" stroke-linecap="round" stroke-linejoin="round"/>
<path d="M3.34148 9.39663C3.34148 10.5123 3.78468 11.5823 4.57359 12.3712C5.3625 13.1601 6.43248 13.6033 7.54817 13.6033C8.66385 13.6033 9.73384 13.1601 10.5227 12.3712C11.3117 11.5823 11.7549 10.5123 11.7549 9.39663C11.7549 8.28095 11.3117 7.21096 10.5227 6.42205C9.73384 5.63315 8.66385 5.18994 7.54817 5.18994C6.43248 5.18994 5.3625 5.63315 4.57359 6.42205C3.78468 7.21096 3.34148 8.28095 3.34148 9.39663Z" stroke="#131313" stroke-width="1.00768" stroke-linecap="round" stroke-linejoin="round"/>
</g>
<defs>
<clipPath id="clip0_14_1490">
<rect width="16.0613" height="16.0613" fill="white" transform="translate(0.375427 0.384033)"/>
</clipPath>
</defs>
</svg>
