<svg width="15" height="15" viewBox="0 0 15 15" fill="none" xmlns="http://www.w3.org/2000/svg">
<g clip-path="url(#clip0_1_527)">
<path d="M2.24086 9.45901C3.20454 9.45901 3.74661 8.91694 3.74661 7.95326C3.74661 6.98958 3.20454 6.44751 2.24086 6.44751C1.27718 6.44751 0.735107 6.98958 0.735107 7.95326C0.735107 8.91694 1.27718 9.45901 2.24086 9.45901Z" stroke="#131313" stroke-width="1.00383" stroke-linecap="round" stroke-linejoin="round"/>
<path d="M7.28358 9.45901C8.24726 9.45901 8.78933 8.91694 8.78933 7.95326C8.78933 6.98958 8.24726 6.44751 7.28358 6.44751C6.3199 6.44751 5.77783 6.98958 5.77783 7.95326C5.77783 8.91694 6.3199 9.45901 7.28358 9.45901Z" stroke="#131313" stroke-width="1.00383" stroke-linecap="round" stroke-linejoin="round"/>
<path d="M12.2792 9.45901C13.2429 9.45901 13.7849 8.91694 13.7849 7.95326C13.7849 6.98958 13.2429 6.44751 12.2792 6.44751C11.3155 6.44751 10.7734 6.98958 10.7734 7.95326C10.7734 8.91694 11.3155 9.45901 12.2792 9.45901Z" stroke="#131313" stroke-width="1.00383" stroke-linecap="round" stroke-linejoin="round"/>
</g>
<defs>
<clipPath id="clip0_1_527">
<rect width="14.0537" height="14.0537" fill="white" transform="translate(0.233154 0.926514)"/>
</clipPath>
</defs>
</svg>
