<svg width="17" height="17" viewBox="0 0 17 17" fill="none" xmlns="http://www.w3.org/2000/svg">
<g clip-path="url(#clip0_1_643)">
<path d="M12.5915 8.97152C12.5915 8.84673 12.5419 8.72704 12.4536 8.6388C12.3654 8.55055 12.2457 8.50098 12.1209 8.50098H4.59216C4.46736 8.50098 4.34768 8.55055 4.25943 8.6388C4.17119 8.72704 4.12161 8.84673 4.12161 8.97152" stroke="#131313" stroke-width="1.00383" stroke-linecap="round" stroke-linejoin="round"/>
<path d="M2.00415 12.5007C2.00415 12.9375 2.17766 13.3564 2.48652 13.6652C2.79538 13.9741 3.21428 14.1476 3.65107 14.1476C4.08785 14.1476 4.50675 13.9741 4.81561 13.6652C5.12447 13.3564 5.29798 12.9375 5.29798 12.5007C5.29798 12.0639 5.12447 11.645 4.81561 11.3361C4.50675 11.0273 4.08785 10.8538 3.65107 10.8538C3.21428 10.8538 2.79538 11.0273 2.48652 11.3361C2.17766 11.645 2.00415 12.0639 2.00415 12.5007Z" stroke="#131313" stroke-width="1.00383" stroke-linecap="round" stroke-linejoin="round"/>
<path d="M6.00381 16.0297C5.77639 15.6033 5.43735 15.2467 5.02294 14.998C4.60854 14.7494 4.13435 14.618 3.65108 14.618C3.1678 14.618 2.69361 14.7494 2.27921 14.998C1.8648 15.2467 1.52576 15.6033 1.29834 16.0297" stroke="#131313" stroke-width="1.00383" stroke-linecap="round" stroke-linejoin="round"/>
<path d="M11.4151 12.5007C11.4151 12.9375 11.5886 13.3564 11.8975 13.6652C12.2063 13.9741 12.6252 14.1476 13.062 14.1476C13.4988 14.1476 13.9177 13.9741 14.2266 13.6652C14.5354 13.3564 14.7089 12.9375 14.7089 12.5007C14.7089 12.0639 14.5354 11.645 14.2266 11.3361C13.9177 11.0273 13.4988 10.8538 13.062 10.8538C12.6252 10.8538 12.2063 11.0273 11.8975 11.3361C11.5886 11.645 11.4151 12.0639 11.4151 12.5007Z" stroke="#131313" stroke-width="1.00383" stroke-linecap="round" stroke-linejoin="round"/>
<path d="M15.4148 16.0297C15.1873 15.6033 14.8483 15.2467 14.4339 14.998C14.0195 14.7494 13.5453 14.618 13.062 14.618C12.5788 14.618 12.1046 14.7494 11.6902 14.998C11.2758 15.2467 10.9367 15.6033 10.7093 16.0297" stroke="#131313" stroke-width="1.00383" stroke-linecap="round" stroke-linejoin="round"/>
<path d="M6.70963 3.56025C6.70963 3.99703 6.88314 4.41593 7.192 4.72479C7.50085 5.03365 7.91975 5.20716 8.35654 5.20716C8.79333 5.20716 9.21223 5.03365 9.52109 4.72479C9.82994 4.41593 10.0035 3.99703 10.0035 3.56025C10.0035 3.12346 9.82994 2.70456 9.52109 2.3957C9.21223 2.08684 8.79333 1.91333 8.35654 1.91333C7.91975 1.91333 7.50085 2.08684 7.192 2.3957C6.88314 2.70456 6.70963 3.12346 6.70963 3.56025Z" stroke="#131313" stroke-width="1.00383" stroke-linecap="round" stroke-linejoin="round"/>
<path d="M10.3946 6.61884C10.1432 6.32362 9.83062 6.08652 9.47857 5.92392C9.12651 5.76133 8.74335 5.67712 8.35557 5.67712C7.96778 5.67712 7.58462 5.76133 7.23257 5.92392C6.88051 6.08652 6.56797 6.32362 6.31653 6.61884" stroke="#131313" stroke-width="1.00383" stroke-linecap="round" stroke-linejoin="round"/>
</g>
<defs>
<clipPath id="clip0_1_643">
<rect width="16.0613" height="16.0613" fill="white" transform="translate(0.326019 0.940918)"/>
</clipPath>
</defs>
</svg>
