<svg width="17" height="17" viewBox="0 0 17 17" fill="none" xmlns="http://www.w3.org/2000/svg">
<g clip-path="url(#clip0_14_1450)">
<path d="M14.5217 4.04277V1.21948H11.6984" stroke="#131313" stroke-width="1.00768" stroke-linecap="round" stroke-linejoin="round"/>
<path d="M14.5217 1.21948L11.3534 4.38783C11.1731 4.56848 10.947 4.69663 10.6994 4.75853C10.4519 4.82043 10.1921 4.81374 9.94801 4.73918L6.36558 3.78553C6.1267 3.72096 5.875 3.7206 5.63594 3.7845C5.39688 3.84839 5.17893 3.97428 5.00413 4.14942L1.34641 7.80714" stroke="#131313" stroke-width="1.00768" stroke-linecap="round" stroke-linejoin="round"/>
<path d="M1.34697 15.3359H15.4634" stroke="#131313" stroke-width="1.00768" stroke-linecap="round" stroke-linejoin="round"/>
<path d="M4.64081 11.2578H2.75862C2.63433 11.2594 2.51558 11.3095 2.42769 11.3974C2.33979 11.4853 2.2897 11.6041 2.28807 11.7284V15.3359H5.11135V11.7284C5.10973 11.6041 5.05963 11.4853 4.97174 11.3974C4.88384 11.3095 4.7651 11.2594 4.64081 11.2578Z" stroke="#131313" stroke-width="1.00768" stroke-linecap="round" stroke-linejoin="round"/>
<path d="M9.34628 7.17993H7.46409C7.3398 7.18156 7.22106 7.23165 7.13316 7.31955C7.04527 7.40744 6.99517 7.52619 6.99355 7.65048V15.3361H9.81683V7.65048C9.8152 7.52619 9.76511 7.40744 9.67721 7.31955C9.58932 7.23165 9.47057 7.18156 9.34628 7.17993Z" stroke="#131313" stroke-width="1.00768" stroke-linecap="round" stroke-linejoin="round"/>
<path d="M14.0517 9.37573H12.1696C12.0453 9.37736 11.9265 9.42745 11.8386 9.51535C11.7507 9.60324 11.7006 9.72199 11.699 9.84628V15.336H14.5223V9.84628C14.5207 9.72199 14.4706 9.60324 14.3827 9.51535C14.2948 9.42745 14.176 9.37736 14.0517 9.37573Z" stroke="#131313" stroke-width="1.00768" stroke-linecap="round" stroke-linejoin="round"/>
</g>
<defs>
<clipPath id="clip0_14_1450">
<rect width="16.0613" height="16.0613" fill="white" transform="translate(0.375427 0.24707)"/>
</clipPath>
</defs>
</svg>
