<svg width="15" height="15" viewBox="0 0 15 15" fill="none" xmlns="http://www.w3.org/2000/svg">
<g clip-path="url(#clip0_1_713)">
<path d="M9.4303 5.63135L5.93665 9.12445" stroke="#777777" stroke-width="1.00383" stroke-linecap="round" stroke-linejoin="round"/>
<path d="M5.93665 5.63135L9.4303 9.12445" stroke="#777777" stroke-width="1.00383" stroke-linecap="round" stroke-linejoin="round"/>
<path d="M1.50769 7.37808C1.50769 9.01604 2.15837 10.5869 3.31658 11.7451C4.47479 12.9033 6.04566 13.554 7.68362 13.554C9.32158 13.554 10.8925 12.9033 12.0507 11.7451C13.2089 10.5869 13.8596 9.01604 13.8596 7.37808C13.8596 5.74012 13.2089 4.16925 12.0507 3.01104C10.8925 1.85282 9.32158 1.20215 7.68362 1.20215C6.04566 1.20215 4.47479 1.85282 3.31658 3.01104C2.15837 4.16925 1.50769 5.74012 1.50769 7.37808Z" stroke="#777777" stroke-width="1.00383" stroke-linecap="round" stroke-linejoin="round"/>
</g>
<defs>
<clipPath id="clip0_1_713">
<rect width="14.0537" height="14.0537" fill="white" transform="translate(0.657104 0.351318)"/>
</clipPath>
</defs>
</svg>
