<svg width="17" height="17" viewBox="0 0 17 17" fill="none" xmlns="http://www.w3.org/2000/svg">
<g clip-path="url(#clip0_14_1444)">
<path d="M3.71528 15.7155H12.8843C13.5773 15.7155 14.1391 15.1537 14.1391 14.4607V5.20206C14.1391 4.92579 14.0293 4.66085 13.834 4.46544L11.8382 2.46962C11.6428 2.27434 11.3779 2.16461 11.1016 2.16455H3.71528C3.43883 2.16455 3.17369 2.27438 2.97821 2.46986C2.78272 2.66534 2.6729 2.93048 2.6729 3.20694V14.6732C2.6729 14.9496 2.78272 15.2147 2.97821 15.4102C3.17369 15.6057 3.43883 15.7155 3.71528 15.7155Z" stroke="#131313" stroke-width="1.00768" stroke-linecap="round" stroke-linejoin="round"/>
<path d="M5.66295 9.59937L5.66284 12.6183H8.68183" stroke="#131313" stroke-width="1.00768" stroke-linecap="round" stroke-linejoin="round"/>
<path d="M5.78047 12.5005L10.5632 7.71777" stroke="#131313" stroke-width="1.00768" stroke-linecap="round" stroke-linejoin="round"/>
</g>
<defs>
<clipPath id="clip0_14_1444">
<rect width="16.0613" height="16.0613" fill="white" transform="translate(0.375427 0.90918)"/>
</clipPath>
</defs>
</svg>
